# xmcd
#
# Track frame offsets:
#	150
#	17176
#	32431
#	51643
#	65836
#	81761
#	99124
#	115974
#	131636
#	148417
#	163999
#	180903
#	197014
#	211724
#
# Disc length: 3051 seconds
#
# Revision: 2
# Processed by: cddbd v1.5.2PL0 Copyright (c) Steve Scherf et al.
# Submitted via: audiograbber 1.83.01
#
DISCID=c80be90e
DTITLE=Trace Adkins - Proud To Be Here
DYEAR=2011
DGENRE=Country
TTITLE0=Proud To Be Here
TTITLE1=Million Dollar View
TTITLE2=Days Like This
TTITLE3=That's What You Get
TTITLE4=Just Fishin'
TTITLE5=It's A Woman Thang
TTITLE6=Love Buzz
TTITLE7=It's Who You Know
TTITLE8=Poor Folks
TTITLE9=Always Gonna Be That Way
TTITLE10=Damn You Bubba
TTITLE11=More Of Us
TTITLE12=If I Was A Woman
TTITLE13=Semper Fi
EXTD=
EXTT0=
EXTT1=
EXTT2=
EXTT3=
EXTT4=
EXTT5=
EXTT6=
EXTT7=
EXTT8=
EXTT9=
EXTT10=
EXTT11=
EXTT12=
EXTT13=
PLAYORDER=
